<svg xmlns="http://www.w3.org/2000/svg" viewBox="0 0 128 128" role="img" aria-label="CV icon">
  <defs>
    <radialGradient id="tile" cx="70%" cy="12%" r="94%">
      <stop offset="0" stop-color="#222736"/>
      <stop offset="0.42" stop-color="#10131b"/>
      <stop offset="1" stop-color="#040509"/>
    </radialGradient>
    <linearGradient id="ivory" x1="0" y1="0" x2="1" y2="1">
      <stop offset="0" stop-color="#fff8ea"/>
      <stop offset="0.6" stop-color="#e2dbcf"/>
      <stop offset="1" stop-color="#949bad"/>
    </linearGradient>
    <linearGradient id="warm" x1="0" y1="0" x2="1" y2="1">
      <stop offset="0" stop-color="#d84d6b"/>
      <stop offset="0.5" stop-color="#ee8d64"/>
      <stop offset="1" stop-color="#e9c268"/>
    </linearGradient>
    <linearGradient id="aqua" x1="0" y1="0" x2="1" y2="1">
      <stop offset="0" stop-color="#9cf5ec"/>
      <stop offset="1" stop-color="#13b7af"/>
    </linearGradient>
    <linearGradient id="blue" x1="0" y1="0" x2="1" y2="1">
      <stop offset="0" stop-color="#c4c7ff"/>
      <stop offset="1" stop-color="#7187ff"/>
    </linearGradient>
    <filter id="shade" x="-25%" y="-25%" width="150%" height="150%">
      <feDropShadow dx="0" dy="7" stdDeviation="6" flood-color="#000" flood-opacity=".34"/>
    </filter>
  </defs>
  <rect width="128" height="128" rx="18" fill="url(#tile)"/>
  <path d="M16 18c22-6 72-7 96 3v89c-23 6-76 6-96-2Z" fill="#090b11" opacity=".18"/>
    <path d="M37 25h38l18 17v63H37Z" fill="url(#ivory)" filter="url(#shade)"/>
    <path d="M75 25v18h18Z" fill="#aeb6c8" />
    <ellipse cx="55" cy="58" rx="7" ry="7" fill="url(#aqua)" />
    <rect x="48" y="73" width="32" height="5" rx="0" fill="#151821" opacity=".65"/>
    <rect x="48" y="85" width="25" height="5" rx="0" fill="#151821" opacity=".42"/>
    <rect x="48" y="97" width="36" height="4" rx="0" fill="url(#warm)" />
</svg>
